<svg xmlns="http://www.w3.org/2000/svg" viewBox="0 0 900 520" role="img" aria-label="Noorse havenstad met gekleurde huizen">
  <defs>
    <linearGradient id="sky" x1="0" x2="0" y1="0" y2="1">
      <stop offset="0" stop-color="#b7d9ec"/>
      <stop offset="1" stop-color="#f8fbfa"/>
    </linearGradient>
  </defs>
  <rect width="900" height="520" fill="url(#sky)"/>
  <path d="M0 300h900v220H0Z" fill="#2d7487"/>
  <path d="M0 245h900v70H0Z" fill="#dde6df"/>
  <g transform="translate(80 165)">
    <rect width="70" height="110" fill="#b91c1c"/><path d="M0 0h70l-35-32Z" fill="#7f1d1d"/>
    <rect x="86" y="26" width="72" height="84" fill="#d97706"/><path d="M86 26h72l-36-30Z" fill="#92400e"/>
    <rect x="176" y="10" width="78" height="100" fill="#f4c542"/><path d="M176 10h78l-39-33Z" fill="#b7791f"/>
    <rect x="275" y="35" width="72" height="75" fill="#0f766e"/><path d="M275 35h72l-36-28Z" fill="#115e59"/>
    <rect x="365" y="0" width="76" height="110" fill="#be6f46"/><path d="M365 0h76l-38-34Z" fill="#7c2d12"/>
  </g>
  <path d="M80 365c130 22 260 22 390 0 108-18 218-13 330 15" fill="none" stroke="#b8e5ef" stroke-width="10" opacity=".55"/>
</svg>
